<svg width="191" height="222" viewBox="0 0 191 222" fill="none" xmlns="http://www.w3.org/2000/svg">
<path d="M48.5773 171.51C48.5773 168.941 49.8469 167.613 51.6047 167.613C53.3723 167.613 54.6418 168.941 54.6418 171.51V173.248C54.6418 175.816 53.3723 177.057 51.6047 177.057C49.8469 177.057 48.5773 175.816 48.5773 173.248V171.51ZM45.8918 173.238C45.8918 176.998 48.0305 179.254 51.5949 179.254C55.1594 179.254 57.3176 176.998 57.3176 173.238V171.529C57.3176 167.76 55.1887 165.416 51.6145 165.416C48.0598 165.416 45.8918 167.74 45.8918 171.529V173.238ZM59.7451 179H62.3134V172.926C62.3134 171.617 63.0459 170.66 64.374 170.66C65.497 170.66 66.4052 171.295 66.4052 172.887V179H68.9736V172.33C68.9736 169.791 67.4795 168.473 65.3896 168.473C63.6709 168.473 62.7529 169.439 62.4209 170.152H62.3134V164.967H59.7451V179ZM75.4692 171.715C75.4692 173.629 76.9731 174.322 78.8384 174.713C80.1665 174.977 81.4067 175.123 81.4067 176.129C81.4067 176.803 80.8403 177.379 79.6294 177.379C78.5259 177.379 77.8618 176.852 77.7544 176.09H75.2641C75.2641 177.936 76.8169 179.186 79.4829 179.186C82.227 179.186 83.897 177.926 83.897 175.797C83.897 173.883 82.5005 173.229 80.5962 172.887C79.4145 172.672 77.9204 172.496 77.9204 171.471C77.9204 170.709 78.5649 170.24 79.5708 170.24C80.8208 170.24 81.2407 170.963 81.3091 171.617H83.5845C83.5845 169.693 82.0903 168.453 79.6196 168.453C77.4419 168.453 75.4692 169.41 75.4692 171.715ZM86.1877 179H88.7561V172.926C88.7561 171.617 89.4885 170.66 90.8166 170.66C91.9397 170.66 92.8479 171.295 92.8479 172.887V179H95.4162V172.33C95.4162 169.791 93.9221 168.473 91.8323 168.473C90.1135 168.473 89.1955 169.439 88.8635 170.152H88.7561V164.967H86.1877V179ZM107.121 168.639H104.543V174.771C104.543 176.227 103.664 176.979 102.512 176.979C101.496 176.979 100.529 176.51 100.529 174.801V168.639H97.9609V175.484C97.9609 177.926 99.3867 179.156 101.506 179.156C103.215 179.156 104.172 178.297 104.494 177.486H104.611V179H107.121V168.639ZM109.5 174.195C109.5 177.213 111.238 179.186 114.099 179.186C116.551 179.186 118.211 177.955 118.426 175.641H116.052C115.935 176.432 115.379 177.125 114.236 177.125C112.908 177.125 112.078 176.012 112.078 174.186V173.365C112.078 171.598 112.888 170.504 114.226 170.504C115.183 170.504 115.867 171.246 116.004 172.105H118.377C118.318 170.113 116.726 168.453 114.109 168.453C111.219 168.453 109.5 170.465 109.5 173.336V174.195ZM123.236 175.445L123.968 174.586L126.927 179H129.964L125.931 173.111L129.71 168.639H126.732L123.353 172.896H123.236V164.967H120.658V179H123.236V175.445ZM130.888 171.715C130.888 173.629 132.392 174.322 134.257 174.713C135.585 174.977 136.825 175.123 136.825 176.129C136.825 176.803 136.259 177.379 135.048 177.379C133.945 177.379 133.281 176.852 133.173 176.09H130.683C130.683 177.936 132.236 179.186 134.902 179.186C137.646 179.186 139.316 177.926 139.316 175.797C139.316 173.883 137.919 173.229 136.015 172.887C134.833 172.672 133.339 172.496 133.339 171.471C133.339 170.709 133.984 170.24 134.99 170.24C136.24 170.24 136.659 170.963 136.728 171.617H139.003C139.003 169.693 137.509 168.453 135.038 168.453C132.861 168.453 130.888 169.41 130.888 171.715ZM141.606 165.67L141.899 174.947H144.126L144.439 165.67H141.606ZM141.538 177.818C141.538 178.629 142.202 179.195 143.013 179.195C143.833 179.195 144.497 178.629 144.497 177.818C144.497 177.008 143.833 176.441 143.013 176.441C142.202 176.441 141.538 177.008 141.538 177.818Z" fill="#2F1767"/>
<path d="M11.1316 202.844C11.1609 203.881 11.8933 205.17 14.0144 205.17C15.6784 205.17 16.9968 204.35 16.9968 202.773C16.9968 201.49 16.1472 200.922 14.9167 200.6L13.5339 200.23C12.7663 200.037 12.4089 199.615 12.4089 199.047C12.4089 198.191 13.1296 197.717 14.1198 197.717C15.239 197.717 15.8249 198.32 15.8952 199.088H16.9089C16.8737 197.535 15.5027 196.814 14.1433 196.814C12.7077 196.814 11.3718 197.617 11.3718 199.117C11.3718 200.365 12.2917 200.969 13.2409 201.215L14.6472 201.584C15.5378 201.812 15.9538 202.188 15.9538 202.85C15.9538 203.723 15.239 204.262 14.1257 204.262C12.8952 204.262 12.2331 203.617 12.157 202.844H11.1316ZM18.7251 205H19.727V196.58H18.7251V205ZM24.2092 198.742C22.4866 198.742 21.5608 199.99 21.5608 201.637V202.188C21.5608 203.857 22.4807 205.1 24.2092 205.1C25.9377 205.1 26.8459 203.857 26.8459 202.188V201.637C26.8459 199.99 25.9319 198.742 24.2092 198.742ZM24.2092 199.604C25.2639 199.604 25.8381 200.412 25.8381 201.672V202.152C25.8381 203.412 25.2639 204.227 24.2092 204.227C23.1487 204.227 22.5686 203.406 22.5686 202.152V201.672C22.5686 200.412 23.1487 199.604 24.2092 199.604ZM36.127 198.842H35.1074L33.9766 203.711H33.9297L32.5352 198.842H31.5742L30.1855 203.711H30.1387L29.0078 198.842H27.9883L29.5937 205H30.6426L32.043 200.254H32.0664L33.4727 205H34.5156L36.127 198.842ZM42.5425 198.742C40.8198 198.742 39.8941 199.99 39.8941 201.637V202.188C39.8941 203.857 40.814 205.1 42.5425 205.1C44.271 205.1 45.1792 203.857 45.1792 202.188V201.637C45.1792 199.99 44.2652 198.742 42.5425 198.742ZM42.5425 199.604C43.5972 199.604 44.1714 200.412 44.1714 201.672V202.152C44.1714 203.412 43.5972 204.227 42.5425 204.227C41.482 204.227 40.9019 203.406 40.9019 202.152V201.672C40.9019 200.412 41.482 199.604 42.5425 199.604ZM46.9778 205H47.9915V201.186C47.9915 200.354 48.3313 199.674 49.4212 199.674C49.6087 199.674 49.8079 199.68 49.9134 199.697V198.777C49.7903 198.76 49.6614 198.748 49.5325 198.748C48.6595 198.748 48.1966 199.229 48.0149 199.598H47.9856V198.842H46.9778V205ZM53.9266 205H54.9344V201.25C54.9344 200.406 55.3914 199.656 56.452 199.656C57.3484 199.656 57.9578 200.184 57.9578 201.221V205H58.9656V201.051C58.9656 199.551 58.0223 198.742 56.7566 198.742C55.7547 198.742 55.1863 199.264 54.9578 199.656H54.9285V198.842H53.9266V205ZM63.3072 198.742C61.5845 198.742 60.6587 199.99 60.6587 201.637V202.188C60.6587 203.857 61.5787 205.1 63.3072 205.1C65.0357 205.1 65.9439 203.857 65.9439 202.188V201.637C65.9439 199.99 65.0298 198.742 63.3072 198.742ZM63.3072 199.604C64.3619 199.604 64.9361 200.412 64.9361 201.672V202.152C64.9361 203.412 64.3619 204.227 63.3072 204.227C62.2466 204.227 61.6666 203.406 61.6666 202.152V201.672C61.6666 200.412 62.2466 199.604 63.3072 199.604ZM70.4434 205H71.4512V198.842H70.4434V205ZM70.3028 197.359C70.3028 197.717 70.5899 197.998 70.9473 197.998C71.3048 197.998 71.5977 197.717 71.5977 197.359C71.5977 196.996 71.3048 196.715 70.9473 196.715C70.5899 196.715 70.3028 196.996 70.3028 197.359ZM73.5545 205H74.5623V201.25C74.5623 200.406 75.0194 199.656 76.0799 199.656C76.9764 199.656 77.5858 200.184 77.5858 201.221V205H78.5936V201.051C78.5936 199.551 77.6502 198.742 76.3846 198.742C75.3827 198.742 74.8143 199.264 74.5858 199.656H74.5565V198.842H73.5545V205ZM80.9195 198.842H80.0875V199.686H80.9137V203.277C80.9137 204.49 81.2125 205.053 82.6715 205.053C82.8824 205.053 83.0934 205.029 83.1813 205.012V204.203C83.0992 204.215 83.023 204.215 82.9234 204.215C82.1676 204.215 81.9215 204.027 81.9215 203.289V199.686H83.1402V198.842H81.9215V197.307H80.9195V198.842ZM87.1537 205.1C88.513 205.1 89.3275 204.344 89.5619 203.324H88.5599C88.3607 203.898 87.892 204.256 87.1771 204.256C86.1752 204.256 85.5775 203.453 85.5775 202.281V202.17H89.6439V201.596C89.6439 199.902 88.7181 198.742 87.1068 198.742C85.4896 198.742 84.5697 199.902 84.5697 201.525V202.217C84.5697 203.969 85.5482 205.1 87.1537 205.1ZM85.5775 201.355V201.338C85.5775 200.365 86.1752 199.586 87.1127 199.586C88.0326 199.586 88.6361 200.359 88.6361 201.338V201.355H85.5775ZM91.4073 205H92.421V201.186C92.421 200.354 92.7609 199.674 93.8507 199.674C94.0382 199.674 94.2374 199.68 94.3429 199.697V198.777C94.2198 198.76 94.0909 198.748 93.962 198.748C93.089 198.748 92.6261 199.229 92.4445 199.598H92.4152V198.842H91.4073V205ZM95.9364 205H96.9442V201.25C96.9442 200.406 97.4012 199.656 98.4618 199.656C99.3583 199.656 99.9677 200.184 99.9677 201.221V205H100.975V201.051C100.975 199.551 100.032 198.742 98.7665 198.742C97.7645 198.742 97.1962 199.264 96.9677 199.656H96.9384V198.842H95.9364V205ZM105.253 205.1C106.612 205.1 107.426 204.344 107.661 203.324H106.659C106.46 203.898 105.991 204.256 105.276 204.256C104.274 204.256 103.676 203.453 103.676 202.281V202.17H107.743V201.596C107.743 199.902 106.817 198.742 105.206 198.742C103.589 198.742 102.669 199.902 102.669 201.525V202.217C102.669 203.969 103.647 205.1 105.253 205.1ZM103.676 201.355V201.338C103.676 200.365 104.274 199.586 105.212 199.586C106.131 199.586 106.735 200.359 106.735 201.338V201.355H103.676ZM109.893 198.842H109.061V199.686H109.887V203.277C109.887 204.49 110.186 205.053 111.645 205.053C111.856 205.053 112.067 205.029 112.155 205.012V204.203C112.073 204.215 111.996 204.215 111.897 204.215C111.141 204.215 110.895 204.027 110.895 203.289V199.686H112.114V198.842H110.895V197.307H109.893V198.842ZM116.185 202.199C116.185 203.84 117.105 205.1 118.74 205.1C120.152 205.1 120.926 204.361 121.131 203.307H120.141C120.029 203.799 119.578 204.209 118.81 204.209C117.826 204.209 117.193 203.412 117.193 202.205V201.631C117.193 200.389 117.785 199.633 118.805 199.633C119.473 199.633 119.959 200.107 120.094 200.629H121.084C121.031 199.686 120.164 198.742 118.74 198.742C117.135 198.742 116.185 199.932 116.185 201.59V202.199ZM125.179 198.742C123.457 198.742 122.531 199.99 122.531 201.637V202.188C122.531 203.857 123.451 205.1 125.179 205.1C126.908 205.1 127.816 203.857 127.816 202.188V201.637C127.816 199.99 126.902 198.742 125.179 198.742ZM125.179 199.604C126.234 199.604 126.808 200.412 126.808 201.672V202.152C126.808 203.412 126.234 204.227 125.179 204.227C124.119 204.227 123.539 203.406 123.539 202.152V201.672C123.539 200.412 124.119 199.604 125.179 199.604ZM129.615 205H130.622V201.25C130.622 200.406 131.08 199.656 132.14 199.656C133.037 199.656 133.646 200.184 133.646 201.221V205H134.654V201.051C134.654 199.551 133.71 198.742 132.445 198.742C131.443 198.742 130.874 199.264 130.646 199.656H130.617V198.842H129.615V205ZM136.593 205H137.601V201.25C137.601 200.406 138.058 199.656 139.118 199.656C140.015 199.656 140.624 200.184 140.624 201.221V205H141.632V201.051C141.632 199.551 140.689 198.742 139.423 198.742C138.421 198.742 137.853 199.264 137.624 199.656H137.595V198.842H136.593V205ZM145.909 205.1C147.269 205.1 148.083 204.344 148.317 203.324H147.315C147.116 203.898 146.647 204.256 145.933 204.256C144.931 204.256 144.333 203.453 144.333 202.281V202.17H148.399V201.596C148.399 199.902 147.474 198.742 145.862 198.742C144.245 198.742 143.325 199.902 143.325 201.525V202.217C143.325 203.969 144.304 205.1 145.909 205.1ZM144.333 201.355V201.338C144.333 200.365 144.931 199.586 145.868 199.586C146.788 199.586 147.392 200.359 147.392 201.338V201.355H144.333ZM149.917 202.199C149.917 203.84 150.837 205.1 152.471 205.1C153.884 205.1 154.657 204.361 154.862 203.307H153.872C153.76 203.799 153.309 204.209 152.542 204.209C151.557 204.209 150.925 203.412 150.925 202.205V201.631C150.925 200.389 151.516 199.633 152.536 199.633C153.204 199.633 153.69 200.107 153.825 200.629H154.815C154.762 199.686 153.895 198.742 152.471 198.742C150.866 198.742 149.917 199.932 149.917 201.59V202.199ZM157.059 198.842H156.227V199.686H157.053V203.277C157.053 204.49 157.352 205.053 158.811 205.053C159.022 205.053 159.233 205.029 159.321 205.012V204.203C159.239 204.215 159.163 204.215 159.063 204.215C158.307 204.215 158.061 204.027 158.061 203.289V199.686H159.28V198.842H158.061V197.307H157.059V198.842ZM161.131 205H162.139V198.842H161.131V205ZM160.99 197.359C160.99 197.717 161.278 197.998 161.635 197.998C161.992 197.998 162.285 197.717 162.285 197.359C162.285 196.996 161.992 196.715 161.635 196.715C161.278 196.715 160.99 196.996 160.99 197.359ZM166.645 198.742C164.922 198.742 163.996 199.99 163.996 201.637V202.188C163.996 203.857 164.916 205.1 166.645 205.1C168.373 205.1 169.281 203.857 169.281 202.188V201.637C169.281 199.99 168.367 198.742 166.645 198.742ZM166.645 199.604C167.699 199.604 168.273 200.412 168.273 201.672V202.152C168.273 203.412 167.699 204.227 166.645 204.227C165.584 204.227 165.004 203.406 165.004 202.152V201.672C165.004 200.412 165.584 199.604 166.645 199.604ZM171.08 205H172.088V201.25C172.088 200.406 172.545 199.656 173.605 199.656C174.502 199.656 175.111 200.184 175.111 201.221V205H176.119V201.051C176.119 199.551 175.176 198.742 173.91 198.742C172.908 198.742 172.34 199.264 172.111 199.656H172.082V198.842H171.08V205ZM177.906 204.438C177.906 204.807 178.21 205.111 178.58 205.111C178.955 205.111 179.259 204.807 179.259 204.438C179.259 204.062 178.955 203.758 178.58 203.758C178.21 203.758 177.906 204.062 177.906 204.438ZM1.13008 211.002V219H2.14961V215.977H4.04219C5.56563 215.977 6.58516 214.992 6.58516 213.492C6.58516 212.004 5.56563 211.002 4.04219 211.002H1.13008ZM2.14961 211.91H3.96602C4.96211 211.91 5.53633 212.49 5.53633 213.492C5.53633 214.805 4.7336 215.074 3.3625 215.074H2.14961V211.91ZM8.08492 219H9.08688V210.58H8.08492V219ZM13.5046 219.1C14.864 219.1 15.6784 218.344 15.9128 217.324H14.9109C14.7116 217.898 14.2429 218.256 13.528 218.256C12.5261 218.256 11.9284 217.453 11.9284 216.281V216.17H15.9948V215.596C15.9948 213.902 15.0691 212.742 13.4577 212.742C11.8405 212.742 10.9206 213.902 10.9206 215.525V216.217C10.9206 217.969 11.8991 219.1 13.5046 219.1ZM11.9284 215.355V215.338C11.9284 214.365 12.5261 213.586 13.4636 213.586C14.3835 213.586 14.987 214.359 14.987 215.338V215.355H11.9284ZM21.1977 218.232H21.227V219H22.1938V214.752C22.1938 213.457 21.2388 212.742 19.9263 212.742C18.438 212.742 17.7055 213.527 17.6411 214.605H18.5903C18.6489 213.99 19.1001 213.586 19.8911 213.586C20.7231 213.586 21.1919 214.031 21.1919 214.84V215.467H19.5688C18.1567 215.473 17.4067 216.152 17.4067 217.23C17.4067 218.361 18.227 219.1 19.4165 219.1C20.3247 219.1 20.8872 218.73 21.1977 218.232ZM19.686 218.262C19.0415 218.262 18.438 217.922 18.438 217.195C18.438 216.639 18.8013 216.24 19.645 216.24H21.1919V216.955C21.1919 217.723 20.5473 218.262 19.686 218.262ZM23.9221 214.605C23.9221 215.719 24.8655 216.07 26.0139 216.305C26.8752 216.475 27.5608 216.609 27.5608 217.307C27.5608 217.828 27.133 218.273 26.1897 218.273C25.3694 218.273 24.8889 217.904 24.801 217.342H23.8166C23.8166 218.449 24.76 219.1 26.1135 219.1C27.5608 219.1 28.551 218.408 28.551 217.184C28.551 215.982 27.5784 215.672 26.4241 215.467C25.7209 215.338 24.9065 215.191 24.9065 214.5C24.9065 213.891 25.4338 213.568 26.1663 213.568C27.1272 213.568 27.4202 214.119 27.4553 214.588H28.3928C28.3928 213.568 27.6487 212.742 26.2014 212.742C25.0178 212.742 23.9221 213.305 23.9221 214.605ZM32.5645 219.1C33.9238 219.1 34.7383 218.344 34.9727 217.324H33.9707C33.7715 217.898 33.3027 218.256 32.5879 218.256C31.5859 218.256 30.9883 217.453 30.9883 216.281V216.17H35.0547V215.596C35.0547 213.902 34.1289 212.742 32.5176 212.742C30.9004 212.742 29.9805 213.902 29.9805 215.525V216.217C29.9805 217.969 30.959 219.1 32.5645 219.1ZM30.9883 215.355V215.338C30.9883 214.365 31.5859 213.586 32.5234 213.586C33.4434 213.586 34.0469 214.359 34.0469 215.338V215.355H30.9883ZM39.2144 216.199C39.2144 217.84 40.1343 219.1 41.7691 219.1C43.1812 219.1 43.9546 218.361 44.1597 217.307H43.1695C43.0581 217.799 42.607 218.209 41.8394 218.209C40.855 218.209 40.2222 217.412 40.2222 216.205V215.631C40.2222 214.389 40.814 213.633 41.8335 213.633C42.5015 213.633 42.9878 214.107 43.1226 214.629H44.1128C44.0601 213.686 43.1929 212.742 41.7691 212.742C40.1636 212.742 39.2144 213.932 39.2144 215.59V216.199ZM45.8235 219H46.8313V215.25C46.8313 214.406 47.2884 213.656 48.3489 213.656C49.2513 213.656 49.8548 214.184 49.8548 215.221V219H50.8626V215.051C50.8626 213.551 49.9251 212.742 48.6536 212.742C47.6575 212.742 47.0891 213.264 46.8606 213.656H46.8313V210.58H45.8235V219ZM55.1455 219.1C56.5049 219.1 57.3194 218.344 57.5538 217.324H56.5518C56.3526 217.898 55.8838 218.256 55.169 218.256C54.167 218.256 53.5694 217.453 53.5694 216.281V216.17H57.6358V215.596C57.6358 213.902 56.71 212.742 55.0987 212.742C53.4815 212.742 52.5616 213.902 52.5616 215.525V216.217C52.5616 217.969 53.5401 219.1 55.1455 219.1ZM53.5694 215.355V215.338C53.5694 214.365 54.167 213.586 55.1045 213.586C56.0245 213.586 56.628 214.359 56.628 215.338V215.355H53.5694ZM59.1531 216.199C59.1531 217.84 60.0731 219.1 61.7078 219.1C63.1199 219.1 63.8934 218.361 64.0984 217.307H63.1082C62.9969 217.799 62.5457 218.209 61.7781 218.209C60.7938 218.209 60.1609 217.412 60.1609 216.205V215.631C60.1609 214.389 60.7527 213.633 61.7723 213.633C62.4402 213.633 62.9266 214.107 63.0613 214.629H64.0516C63.9988 213.686 63.1316 212.742 61.7078 212.742C60.1023 212.742 59.1531 213.932 59.1531 215.59V216.199ZM66.7701 216.779L67.3384 216.158L69.4302 219H70.6666L68.0826 215.52L70.5142 212.842H69.2662L66.8111 215.566H66.7701V210.58H65.7623V219H66.7701V216.779ZM79.0157 212.842H77.9434L76.2735 217.881H76.2384L74.5743 212.842H73.4552L75.7227 219.088L75.629 219.422C75.4532 220.072 75.1192 220.312 74.4161 220.312C74.2638 220.312 74.0704 220.301 73.9708 220.289V221.109C74.1407 221.145 74.3516 221.162 74.5391 221.162C75.5763 221.162 76.1798 220.764 76.6602 219.457L76.8184 219.029C76.8243 219.023 78.9571 213.041 79.0157 212.842ZM82.5897 212.742C80.867 212.742 79.9413 213.99 79.9413 215.637V216.188C79.9413 217.857 80.8612 219.1 82.5897 219.1C84.3182 219.1 85.2264 217.857 85.2264 216.188V215.637C85.2264 213.99 84.3123 212.742 82.5897 212.742ZM82.5897 213.604C83.6444 213.604 84.2186 214.412 84.2186 215.672V216.152C84.2186 217.412 83.6444 218.227 82.5897 218.227C81.5291 218.227 80.9491 217.406 80.9491 216.152V215.672C80.9491 214.412 81.5291 213.604 82.5897 213.604ZM91.9352 212.842H90.9215V216.656C90.9215 217.635 90.3004 218.191 89.4156 218.191C88.607 218.191 87.9449 217.822 87.9449 216.674V212.842H86.9313V216.961C86.9313 218.373 87.8395 219.1 89.1109 219.1C90.0953 219.1 90.6754 218.678 90.8922 218.191H90.9332V219H91.9352V212.842ZM93.9681 219H94.9818V215.186C94.9818 214.354 95.3216 213.674 96.4115 213.674C96.599 213.674 96.7982 213.68 96.9037 213.697V212.777C96.7806 212.76 96.6517 212.748 96.5228 212.748C95.6498 212.748 95.1869 213.229 95.0052 213.598H94.9759V212.842H93.9681V219ZM100.975 219H101.983V212.842H100.975V219ZM100.835 211.359C100.835 211.717 101.122 211.998 101.479 211.998C101.837 211.998 102.13 211.717 102.13 211.359C102.13 210.996 101.837 210.715 101.479 210.715C101.122 210.715 100.835 210.996 100.835 211.359ZM104.087 219H105.094V215.25C105.094 214.406 105.551 213.656 106.612 213.656C107.508 213.656 108.118 214.184 108.118 215.221V219H109.126V215.051C109.126 213.551 108.182 212.742 106.917 212.742C105.915 212.742 105.346 213.264 105.118 213.656H105.089V212.842H104.087V219ZM111.452 212.842H110.62V213.686H111.446V217.277C111.446 218.49 111.745 219.053 113.204 219.053C113.414 219.053 113.625 219.029 113.713 219.012V218.203C113.631 218.215 113.555 218.215 113.455 218.215C112.7 218.215 112.454 218.027 112.454 217.289V213.686H113.672V212.842H112.454V211.307H111.452V212.842ZM117.686 219.1C119.045 219.1 119.86 218.344 120.094 217.324H119.092C118.893 217.898 118.424 218.256 117.709 218.256C116.707 218.256 116.11 217.453 116.11 216.281V216.17H120.176V215.596C120.176 213.902 119.25 212.742 117.639 212.742C116.022 212.742 115.102 213.902 115.102 215.525V216.217C115.102 217.969 116.08 219.1 117.686 219.1ZM116.11 215.355V215.338C116.11 214.365 116.707 213.586 117.645 213.586C118.565 213.586 119.168 214.359 119.168 215.338V215.355H116.11ZM121.939 219H122.953V215.186C122.953 214.354 123.293 213.674 124.383 213.674C124.57 213.674 124.769 213.68 124.875 213.697V212.777C124.752 212.76 124.623 212.748 124.494 212.748C123.621 212.748 123.158 213.229 122.976 213.598H122.947V212.842H121.939V219ZM126.468 219H127.476V215.25C127.476 214.406 127.933 213.656 128.994 213.656C129.89 213.656 130.5 214.184 130.5 215.221V219H131.507V215.051C131.507 213.551 130.564 212.742 129.299 212.742C128.297 212.742 127.728 213.264 127.5 213.656H127.47V212.842H126.468V219ZM135.785 219.1C137.144 219.1 137.958 218.344 138.193 217.324H137.191C136.992 217.898 136.523 218.256 135.808 218.256C134.806 218.256 134.208 217.453 134.208 216.281V216.17H138.275V215.596C138.275 213.902 137.349 212.742 135.738 212.742C134.121 212.742 133.201 213.902 133.201 215.525V216.217C133.201 217.969 134.179 219.1 135.785 219.1ZM134.208 215.355V215.338C134.208 214.365 134.806 213.586 135.744 213.586C136.664 213.586 137.267 214.359 137.267 215.338V215.355H134.208ZM140.425 212.842H139.593V213.686H140.419V217.277C140.419 218.49 140.718 219.053 142.177 219.053C142.388 219.053 142.599 219.029 142.687 219.012V218.203C142.605 218.215 142.529 218.215 142.429 218.215C141.673 218.215 141.427 218.027 141.427 217.289V213.686H142.646V212.842H141.427V211.307H140.425V212.842ZM146.712 214.605C146.712 215.719 147.655 216.07 148.803 216.305C149.665 216.475 150.35 216.609 150.35 217.307C150.35 217.828 149.923 218.273 148.979 218.273C148.159 218.273 147.678 217.904 147.591 217.342H146.606C146.606 218.449 147.55 219.1 148.903 219.1C150.35 219.1 151.341 218.408 151.341 217.184C151.341 215.982 150.368 215.672 149.214 215.467C148.51 215.338 147.696 215.191 147.696 214.5C147.696 213.891 148.223 213.568 148.956 213.568C149.917 213.568 150.21 214.119 150.245 214.588H151.182C151.182 213.568 150.438 212.742 148.991 212.742C147.807 212.742 146.712 213.305 146.712 214.605ZM155.354 219.1C156.713 219.1 157.528 218.344 157.762 217.324H156.76C156.561 217.898 156.092 218.256 155.377 218.256C154.375 218.256 153.778 217.453 153.778 216.281V216.17H157.844V215.596C157.844 213.902 156.918 212.742 155.307 212.742C153.69 212.742 152.77 213.902 152.77 215.525V216.217C152.77 217.969 153.749 219.1 155.354 219.1ZM153.778 215.355V215.338C153.778 214.365 154.375 213.586 155.313 213.586C156.233 213.586 156.836 214.359 156.836 215.338V215.355H153.778ZM159.994 212.842H159.162V213.686H159.989V217.277C159.989 218.49 160.287 219.053 161.746 219.053C161.957 219.053 162.168 219.029 162.256 219.012V218.203C162.174 218.215 162.098 218.215 161.998 218.215C161.242 218.215 160.996 218.027 160.996 217.289V213.686H162.215V212.842H160.996V211.307H159.994V212.842ZM164.441 212.842H163.609V213.686H164.436V217.277C164.436 218.49 164.734 219.053 166.193 219.053C166.404 219.053 166.615 219.029 166.703 219.012V218.203C166.621 218.215 166.545 218.215 166.445 218.215C165.689 218.215 165.443 218.027 165.443 217.289V213.686H166.662V212.842H165.443V211.307H164.441V212.842ZM168.513 219H169.521V212.842H168.513V219ZM168.373 211.359C168.373 211.717 168.66 211.998 169.017 211.998C169.375 211.998 169.668 211.717 169.668 211.359C169.668 210.996 169.375 210.715 169.017 210.715C168.66 210.715 168.373 210.996 168.373 211.359ZM171.625 219H172.632V215.25C172.632 214.406 173.089 213.656 174.15 213.656C175.046 213.656 175.656 214.184 175.656 215.221V219H176.664V215.051C176.664 213.551 175.72 212.742 174.455 212.742C173.453 212.742 172.884 213.264 172.656 213.656H172.626V212.842H171.625V219ZM181.005 220.412C180.161 220.412 179.64 219.955 179.529 219.457H178.497C178.638 220.482 179.435 221.256 180.999 221.256C182.394 221.256 183.618 220.465 183.618 218.889V212.842H182.646V213.709H182.616C182.329 213.188 181.661 212.748 180.824 212.748C179.376 212.748 178.363 213.768 178.363 215.578V216.088C178.363 217.934 179.388 218.941 180.824 218.941C181.661 218.941 182.335 218.502 182.581 217.969H182.611V218.877C182.611 219.844 181.978 220.412 181.005 220.412ZM181.017 213.615C181.99 213.615 182.611 214.406 182.611 215.654V216.035C182.611 217.307 182.025 218.08 181.017 218.08C179.98 218.08 179.37 217.312 179.37 216.035V215.654C179.37 214.354 179.98 213.615 181.017 213.615ZM185.423 214.605C185.423 215.719 186.366 216.07 187.515 216.305C188.376 216.475 189.062 216.609 189.062 217.307C189.062 217.828 188.634 218.273 187.69 218.273C186.87 218.273 186.39 217.904 186.302 217.342H185.317C185.317 218.449 186.261 219.1 187.614 219.1C189.062 219.1 190.052 218.408 190.052 217.184C190.052 215.982 189.079 215.672 187.925 215.467C187.222 215.338 186.407 215.191 186.407 214.5C186.407 213.891 186.935 213.568 187.667 213.568C188.628 213.568 188.921 214.119 188.956 214.588H189.894C189.894 213.568 189.149 212.742 187.702 212.742C186.519 212.742 185.423 213.305 185.423 214.605Z" fill="#4A4A4A"/>
</svg>
