<svg width="60" height="12" viewBox="0 0 60 12" fill="none" xmlns="http://www.w3.org/2000/svg">
<path d="M5.99997 11.0368C8.78173 11.0368 11.0368 8.78178 11.0368 6.00001C11.0368 3.21825 8.78173 0.963181 5.99997 0.963181C3.2182 0.963181 0.963135 3.21825 0.963135 6.00001C0.963135 8.78178 3.2182 11.0368 5.99997 11.0368Z" fill="#31196D"/>
<path d="M31 11.845C34.2282 11.845 36.8451 9.22812 36.8451 6.00001C36.8451 2.7719 34.2282 0.154999 31 0.154999C27.7719 0.154999 25.155 2.7719 25.155 6.00001C25.155 9.22812 27.7719 11.845 31 11.845Z" fill="#ED5992"/>
<path d="M55.9999 9.66248C58.0226 9.66248 59.6623 8.02274 59.6623 6.00001C59.6623 3.97729 58.0226 2.33755 55.9999 2.33755C53.9771 2.33755 52.3374 3.97729 52.3374 6.00001C52.3374 8.02274 53.9771 9.66248 55.9999 9.66248Z" fill="#733CE2"/>
</svg>
